<?xml version="1.0" encoding="UTF-8" standalone="no"?>
<!DOCTYPE svg PUBLIC "-//W3C//DTD SVG 1.1//EN" "http://www.w3.org/Graphics/SVG/1.1/DTD/svg11.dtd">
<svg width="100%" height="100%" viewBox="0 0 1708 960" version="1.1" xmlns="http://www.w3.org/2000/svg" xmlns:xlink="http://www.w3.org/1999/xlink" xml:space="preserve" xmlns:serif="http://www.serif.com/" style="fill-rule:evenodd;clip-rule:evenodd;stroke-linecap:round;stroke-linejoin:round;stroke-miterlimit:1.5;">
    <g transform="matrix(1,0,0,1,-1,-3)">
        <rect x="-14" y="-7" width="1733" height="978" style="fill:rgb(48,56,111);"/>
    </g>
    <g transform="matrix(0.999509,-0.031335,0.031335,0.999509,952.017583,238.310418)">
        <path d="M496,32L517,29L502,42L510,68L493,52L475,67L478,45L459,33L483,31L494,10L496,32Z" style="fill:none;stroke:rgb(242,242,242);stroke-width:2.5px;"/>
    </g>
    <g transform="matrix(0.974329,0.225128,-0.225128,0.974329,1046.307418,346.138464)">
        <path d="M496,32L517,29L502,42L510,68L493,52L475,67L478,45L459,33L483,31L494,10L496,32Z" style="fill:none;stroke:rgb(242,242,242);stroke-width:2.5px;"/>
    </g>
    <g transform="matrix(0.975501,-0.219995,0.219995,0.975501,979.375714,913.313068)">
        <path d="M496,32L517,29L502,42L510,68L493,52L475,67L478,45L459,33L483,31L494,10L496,32Z" style="fill:none;stroke:rgb(242,242,242);stroke-width:2.5px;"/>
    </g>
    <g transform="matrix(1.036817,0.207755,-0.226371,1.129723,1201.361717,482.556317)">
        <path d="M496,32L517,29L502,42L510,68L493,52L475,67L478,45L459,33L483,31L494,10L496,32Z" style="fill:none;stroke:rgb(242,242,242);stroke-width:2.26px;"/>
    </g>
    <g transform="matrix(1,0,0,1,473,6)">
        <path d="M496,32L517,29L502,42L510,68L493,52L475,67L478,45L459,33L483,31L494,10L496,32Z" style="fill:none;stroke:rgb(242,242,242);stroke-width:2.5px;"/>
    </g>
    <g transform="matrix(1,0,0,1,473,6)">
        <path d="M496,32L517,29L502,42L510,68L493,52L475,67L478,45L459,33L483,31L494,10L496,32Z" style="fill:none;stroke:rgb(242,242,242);stroke-width:2.5px;"/>
    </g>
    <g transform="matrix(1.131938,-0.230521,0.216759,1.064359,639.660736,203.484281)">
        <path d="M496,32L517,29L502,42L510,68L493,52L475,67L478,45L459,33L483,31L494,10L496,32Z" style="fill:none;stroke:rgb(242,242,242);stroke-width:2.23px;"/>
    </g>
    <g transform="matrix(1.145746,0.147276,-0.138483,1.077343,983.776968,-0.387018)">
        <path d="M496,32L517,29L502,42L510,68L493,52L475,67L478,45L459,33L483,31L494,10L496,32Z" style="fill:none;stroke:rgb(242,242,242);stroke-width:2.23px;"/>
    </g>
    <g transform="matrix(0.933386,-0.358873,0.358873,0.933386,527.511388,433.727947)">
        <path d="M496,32L517,29L502,42L510,68L493,52L475,67L478,45L459,33L483,31L494,10L496,32Z" style="fill:none;stroke:rgb(242,242,242);stroke-width:2.5px;"/>
    </g>
    <g transform="matrix(0.944134,0.043677,-0.043139,0.932501,622.444842,443.318135)">
        <path d="M496,32L517,29L502,42L510,68L493,52L475,67L478,45L459,33L483,31L494,10L496,32Z" style="fill:none;stroke:rgb(242,242,242);stroke-width:2.66px;"/>
    </g>
    <g transform="matrix(0.901178,0.284915,-0.281404,0.890074,553.700082,533.248839)">
        <path d="M496,32L517,29L502,42L510,68L493,52L475,67L478,45L459,33L483,31L494,10L496,32Z" style="fill:none;stroke:rgb(242,242,242);stroke-width:2.66px;"/>
    </g>
    <g transform="matrix(1.215167,0.165126,-0.150847,1.110081,163.381591,276.125137)">
        <path d="M496,32L517,29L502,42L510,68L493,52L475,67L478,45L459,33L483,31L494,10L496,32Z" style="fill:none;stroke:rgb(242,242,242);stroke-width:2.13px;"/>
    </g>
    <g transform="matrix(1.195529,-0.273144,0.249523,1.092142,598.350456,881.700754)">
        <path d="M496,32L517,29L502,42L510,68L493,52L475,67L478,45L459,33L483,31L494,10L496,32Z" style="fill:none;stroke:rgb(242,242,242);stroke-width:2.13px;"/>
    </g>
    <path d="M496,32L517,29L502,42L510,68L493,52L475,67L478,45L459,33L483,31L494,10L496,32Z" style="fill:none;stroke:rgb(242,242,242);stroke-width:2.5px;"/>
    <g transform="matrix(0.960951,0.276719,-0.276719,0.960951,101.848064,97.483903)">
        <path d="M496,32L517,29L502,42L510,68L493,52L475,67L478,45L459,33L483,31L494,10L496,32Z" style="fill:none;stroke:rgb(242,242,242);stroke-width:2.5px;"/>
    </g>
    <g transform="matrix(0.936475,-0.350735,0.350735,0.936475,-425.678374,202.636059)">
        <path d="M496,32L517,29L502,42L510,68L493,52L475,67L478,45L459,33L483,31L494,10L496,32Z" style="fill:none;stroke:rgb(242,242,242);stroke-width:2.5px;"/>
    </g>
    <g transform="matrix(1,0,0,1,-357,237)">
        <path d="M496,32L517,29L502,42L510,68L493,52L475,67L478,45L459,33L483,31L494,10L496,32Z" style="fill:none;stroke:rgb(242,242,242);stroke-width:2.5px;"/>
    </g>
    <g transform="matrix(1.108172,-0.319204,0.319204,1.108172,-313.737144,678.593091)">
        <path d="M496,32L517,29L502,42L510,68L493,52L475,67L478,45L459,33L483,31L494,10L496,32Z" style="fill:none;stroke:rgb(242,242,242);stroke-width:2.17px;"/>
    </g>
    <g transform="matrix(1.108172,-0.319204,0.319204,1.108172,-184.737144,1011.593091)">
        <path d="M496,32L517,29L502,42L510,68L493,52L475,67L478,45L459,33L483,31L494,10L496,32Z" style="fill:none;stroke:rgb(242,242,242);stroke-width:2.17px;"/>
    </g>
    <g transform="matrix(1.13629,0.196934,-0.196934,1.13629,158.670956,741.620993)">
        <path d="M496,32L517,29L502,42L510,68L493,52L475,67L478,45L459,33L483,31L494,10L496,32Z" style="fill:none;stroke:rgb(242,242,242);stroke-width:2.17px;"/>
    </g>
    <g transform="matrix(0.891536,0.189415,-0.210047,0.988645,-398.377808,347.548251)">
        <path d="M496,32L517,29L502,42L510,68L493,52L475,67L478,45L459,33L483,31L494,10L496,32Z" style="fill:none;stroke:rgb(242,242,242);stroke-width:2.6px;"/>
    </g>
    <g transform="matrix(0.910705,0.036486,-0.04046,1.009902,-311.346106,755.348759)">
        <path d="M496,32L517,29L502,42L510,68L493,52L475,67L478,45L459,33L483,31L494,10L496,32Z" style="fill:none;stroke:rgb(242,242,242);stroke-width:2.6px;"/>
    </g>
    <g transform="matrix(0.899471,-0.147195,0.163229,0.997445,67.192168,653.471129)">
        <path d="M496,32L517,29L502,42L510,68L493,52L475,67L478,45L459,33L483,31L494,10L496,32Z" style="fill:none;stroke:rgb(242,242,242);stroke-width:2.6px;"/>
    </g>
</svg>
